<svg width="46" height="46" viewBox="0 0 46 46" fill="none" xmlns="http://www.w3.org/2000/svg">
<path d="M16.6547 36.5326C17.2163 37.0942 17.9518 37.3749 18.6874 37.3749C19.423 37.3749 20.1586 37.0942 20.7201 36.5326L38.5652 18.6875L19.8779 0L15.8125 4.06537L18.9346 7.18746L5.15478 20.9672C4.03174 22.0903 4.03174 23.9096 5.15478 25.0326C5.15478 25.0327 16.6547 36.5326 16.6547 36.5326ZM23 11.2529L30.4346 18.6875L26.1221 23H11.2529C11.2529 22.9999 23 11.2529 23 11.2529Z" fill="black"/>
<path d="M38.8124 37.375C41.1941 37.375 43.1249 35.4442 43.1249 33.0625C43.1249 30.6808 38.8124 25.875 38.8124 25.875C38.8124 25.875 34.4999 30.6808 34.4999 33.0625C34.4999 35.4442 36.4307 37.375 38.8124 37.375Z" fill="black"/>
<path d="M2.87506 40.25H43.1249V46H2.87506V40.25Z" fill="black"/>
</svg>
